<svg xmlns="http://www.w3.org/2000/svg" version="1.1" xmlns:xlink="http://www.w3.org/1999/xlink" xmlns:svgjs="http://svgjs.dev/svgjs" viewBox="0 0 5.706323004061848 4.393732327207052"><g transform="matrix(0.8392346911263896,0,0,0.8392346911263896,2.861689265474369,3.8447290971018413)"><g transform="matrix(1,0,0,1,0,0)"><path d=" M -1.7546873259820683 -1.191917766723485 Q -1.7503852256310013 -1.147123883965129 -1.7708420199530008 -1.1195418324448485 Q -1.7912988142750004 -1.091959780924568 -1.8281293400985374 -1.0884224984136908 Q -1.8410697951176183 -1.0871796694233824 -1.9381597140158238 -1.0939285692107439 L -2.1194946990231784 -1.1096646173926272 L -2.115479405362182 -1.0678569934848283 L -2.133588162925572 -1.068126992578106 L -2.1376990588165916 -1.1109300361027574 Q -2.1447736238383466 -1.184591087749832 -2.1540922195902903 -1.218857160959522 L -2.1584169096611796 -1.2325062289053839 L -1.7755517406193524 -1.1999599182915344 Q -1.7814060663706208 -1.229535700107034 -1.808203601392404 -1.2470540366934884 L -1.7976925994405315 -1.2631325577065582 Q -1.7589894263331354 -1.236711649481841 -1.7546873259820683 -1.191917766723485 M -2.2939405413457967 -1.105970284387582 Q -2.3238031298513673 -1.1031022174868705 -2.347212298444191 -1.1219505814952604 Q -2.3706214670370143 -1.14079894550365 -2.3734895339377258 -1.1706615340092208 Q -2.3763576008384373 -1.2005241225147913 -2.3570115270216214 -1.223981092222627 Q -2.3376654532048056 -1.2474380619304624 -2.3078028646992346 -1.2503061288311736 Q -2.277940276193664 -1.2531741957318852 -2.2549810162942547 -1.2337803208000575 Q -2.2320217563948455 -1.2143864458682296 -2.229153689494134 -1.184523857362659 Q -2.226285622593423 -1.1546612688570883 -2.2451817877168243 -1.1317498100726908 Q -2.2640779528402257 -1.1088383512882933 -2.2939405413457967 -1.105970284387582 M -1.7355319812856225 -1.7050443199227783 Q -1.731125612824635 -1.728636350716799 -1.753876082918256 -1.759335147281473 L -1.7393260872331286 -1.7718769822972424 Q -1.7268492600710712 -1.7624255917134104 -1.7204426144181326 -1.7368139753747704 Q -1.7140359687651938 -1.7112023590361307 -1.7193603306555536 -1.6826953218266891 Q -1.7360678110701309 -1.5932422050660278 -1.8166739162830345 -1.6082972973077347 Q -1.851078961190981 -1.6147232513133414 -1.9362443003228178 -1.6489411561375595 Q -2.0214096394546544 -1.6831590609617775 -2.048933675381012 -1.6882998241662628 Q -2.091202730553632 -1.6961945676588652 -2.0987302766744853 -1.6558915150524134 Q -2.110113395198703 -1.5949454355011936 -1.9615273359950445 -1.5244671905576161 L -1.7715366320696873 -1.4523594071916903 L -1.793568474374624 -1.3343992532215874 L -2.1441784345649753 -1.467025252992825 Q -2.146737391291957 -1.4369844184426759 -2.125834332932342 -1.41273442563413 L -2.1403843286174693 -1.400192590618361 Q -2.170264414232266 -1.4362921818023677 -2.1619106740249774 -1.4810187401826986 Q -2.1535569338176885 -1.525745298563029 -2.12635793715989 -1.5460975608650211 Q -2.0991589405020923 -1.566449823167013 -2.057872886612556 -1.558738678360285 L -2.0549238827633034 -1.5581878823026616 Q -2.1372166507748602 -1.6132324127575224 -2.122712354590777 -1.6908895141211733 Q -2.1124308281818065 -1.7459375859738882 -2.076482331756818 -1.7722853677549528 Q -2.04053383533183 -1.7986331495360175 -1.985917968704576 -1.791484225662174 Q -2.0364946642425914 -1.82025917776387 -2.0611518414862995 -1.8543659748924828 Q -2.0858090187300076 -1.8884727720210956 -2.0757110910069114 -1.9425378425907263 Q -2.0656131632838157 -1.9966029131603569 -2.0266238636666376 -2.0228913995253404 Q -1.9876345640494595 -2.0491798858903234 -1.929637488347492 -2.03834756342373 Q -1.8991644485718822 -2.032656004161621 -1.8156572100505464 -1.9977304960831304 Q -1.7321499715292104 -1.9628049880046397 -1.689265112445255 -1.9527606432599947 Q -1.6848587439842675 -1.9763526740540152 -1.7076092140778885 -2.0070514706186895 L -1.693059218392761 -2.0195933056344586 Q -1.6805823912307039 -2.0101419150506263 -1.674175745577765 -1.9845302987119866 Q -1.6677690999248265 -1.9589186823733469 -1.673093461815186 -1.9304116451639053 Q -1.6898009422297633 -1.840958528403244 -1.770407047442667 -1.856013620644951 Q -1.8048120923506137 -1.8624395746505575 -1.8899774314824502 -1.8966574794747757 Q -1.975142770614287 -1.9308753842989939 -2.0026668065406446 -1.9360161475034792 Q -2.0449358617132645 -1.9439108909960814 -2.052463407834118 -1.9036078383896295 Q -2.06568251321708 -1.8328317460075678 -1.86339858081554 -1.750289570774726 Q -1.7774338390864937 -1.714905065981549 -1.7355319812856225 -1.7050443199227783 M -1.4273600050132345 -2.3527224774671787 Q -1.4721134506888112 -2.276952238585655 -1.5424809047715609 -2.3092233000171007 Q -1.4985586685880157 -2.232178915610209 -1.5326323147273755 -2.174490211007231 Q -1.566705960866735 -2.116801506404252 -1.6216656856268146 -2.103387757700169 Q -1.6766254103868943 -2.0899740089960854 -1.7394802676408856 -2.127099026431507 Q -1.8376371680101324 -2.185075081056686 -1.8651243562995274 -2.26634902817348 Q -1.8926115445889222 -2.3476229752902733 -1.8473495370306683 -2.424254239613633 Q -1.8102245195952467 -2.4871090968676244 -1.738608278924349 -2.4726829375669626 Q -1.761896232766029 -2.49224492125645 -1.7846756247250317 -2.5126679303877735 Q -1.747042045406933 -2.5763838130836003 -1.7338999702815738 -2.6104321002857405 L -1.7298717421322791 -2.623151116677633 L -1.4394948950231743 -2.371503969539074 Q -1.4268211148683705 -2.39886041844217 -1.438175513260718 -2.4287949743458053 L -1.4202147797185367 -2.4356076133812135 Q -1.404474720292769 -2.3914686223497763 -1.4273600050132345 -2.3527224774671787 M -1.5784379255992689 -2.1765749202561864 Q -1.557521518716362 -2.177576879890447 -1.5453160335321137 -2.1982414904944987 Q -1.5331105483478655 -2.218906101098551 -1.5427831627686632 -2.2536543460940406 Q -1.5552754856627289 -2.29935928968563 -1.5898775709846347 -2.343025016421545 Q -1.599545216080465 -2.3522193972218526 -1.6378431994485676 -2.384711926669966 Q -1.6761411828166703 -2.4172044561180797 -1.700642625659344 -2.438644589014757 Q -1.734887278097124 -2.455386864230977 -1.7681501043567043 -2.4541281389928944 Q -1.8014129306162845 -2.4528694137548115 -1.8151441014485636 -2.429621726825253 Q -1.8400636336997371 -2.3874314801753136 -1.7799807640194412 -2.3171015521860103 Q -1.7198978943391454 -2.246771624196707 -1.6381004773647732 -2.1984582453423913 Q -1.5993543324821757 -2.175572960621926 -1.5784379255992689 -2.1765749202561864 M -1.0395910227828815 -2.613335411792116 Q -1.0136869058965952 -2.6383349463546155 -1.0144224594717768 -2.676537812227977 L -0.9960154580507211 -2.6776251478179645 Q -0.9896741977769958 -2.636493792161472 -1.0270912555016318 -2.6003833533489726 Q -1.0429215491543624 -2.585105860005223 -1.0629435591876146 -2.5727317291578324 Q -1.0688188037818511 -2.480897740346729 -1.1450920368359165 -2.4072879996904804 Q -1.190424241386918 -2.3635388142061062 -1.2301792976555463 -2.3550514411685763 Q -1.2699343539241748 -2.3465640681310465 -1.2938922412132368 -2.3713888468137374 Q -1.3178501285022988 -2.396213625496429 -1.316615460321079 -2.425894858531501 Q -1.315380792139859 -2.4555760915665736 -1.2758050580080325 -2.493769824925948 Q -1.236229323876206 -2.5319635582853226 -1.1402196134573654 -2.5620822485837134 L -1.2331889221768113 -2.7030563867659643 Q -1.2079312524877952 -2.6120835879639017 -1.2590199274579712 -2.5627789503545273 Q -1.3568799245839422 -2.4683362642295292 -1.4499337476776906 -2.5647571437507066 Q -1.5277100774276893 -2.645347729619153 -1.5342763481547668 -2.7335131088149502 Q -1.540842618881844 -2.8216784880107477 -1.4775214442709217 -2.8827884613857466 Q -1.4408239453486826 -2.918204468682621 -1.3991489218971962 -2.9153422282458186 Q -1.3871425678373965 -2.914421651149247 -1.368886330136972 -2.9070250448311032 L -1.3964374451810249 -2.9485333097891737 Q -1.3431900938036583 -2.999921241945423 -1.3228916836159155 -3.0278492662910534 L -1.3156207137316316 -3.039035552401369 L -1.1068663654242028 -2.7276858742856835 Q -1.0634940892414064 -2.661143814964355 -1.0625415225992652 -2.595355574246182 Q -1.0511039636212312 -2.6022245075421164 -1.0395910227828815 -2.613335411792116 M -1.297912658589964 -2.5829185994352466 Q -1.2806729408762052 -2.5780153216387207 -1.262683970816284 -2.595376109529345 Q -1.2446950007563629 -2.61273689741997 -1.2447361228159197 -2.6502202044909344 Q -1.2447772448754764 -2.687703511561899 -1.2528214592651 -2.712599105847912 Q -1.2608656736547232 -2.7374947001339254 -1.2703866965792983 -2.758880445911656 L -1.335135586025838 -2.856212770015418 L -1.339996606635213 -2.861249681632196 Q -1.403884306072712 -2.9274490914527056 -1.4643272454740468 -2.8691168441402066 Q -1.487353127150746 -2.846895035640207 -1.4470852317584837 -2.764849337394182 Q -1.4068173363662215 -2.6828036391481564 -1.3470962260224726 -2.620921582142028 Q -1.3151523763037232 -2.587821877231773 -1.297912658589964 -2.5829185994352466 M -1.1618589023580037 -2.4189014496759174 Q -1.1042941981662562 -2.4744559709259164 -1.1320623262772687 -2.5435496107287983 L -1.1469971701201993 -2.5388644811268266 Q -1.1597984648427113 -2.5348486557537075 -1.162639009122141 -2.5341919151682406 Q -1.1654795534015707 -2.533535174582773 -1.1768668578060608 -2.5294942219228824 Q -1.1882541622105511 -2.525453269262992 -1.1928936034959727 -2.523060449888462 Q -1.1975330447813946 -2.5206676305139326 -1.2078661382690614 -2.5162543348094575 Q -1.2181992317567283 -2.511841039104983 -1.2242777906469435 -2.508059356699203 Q -1.230356349537159 -2.5042776742934234 -1.2382212417899805 -2.499466908257592 Q -1.2510979183728081 -2.4912091119304076 -1.2719651236423166 -2.4710705979772833 Q -1.2928323289118253 -2.4509320840241586 -1.2957025667350202 -2.4287057092671653 Q -1.2985728045582152 -2.4064793345101725 -1.2798231536363405 -2.3870512468454574 Q -1.2610735027144657 -2.367623159180743 -1.2290953931949575 -2.376248732295518 Q -1.1971172836754491 -2.384874305410293 -1.1618589023580037 -2.4189014496759174 M -1.0099143101903392 -3.2187689404466218 Q -0.8998658822839435 -3.282159345992973 -0.8494530400777903 -3.194640517500485 Q -0.8180074058303879 -3.1400495650744777 -0.8533435733908141 -3.0821889112401015 Q -0.8886797409512404 -3.0243282574057258 -0.9834981398816118 -2.968556658681277 Q -0.9672622521347154 -2.9363635546204665 -0.9567803740522479 -2.918166570478464 Q -0.9343192067326748 -2.879173033031316 -0.9058240375096223 -2.8707750969188175 Q -0.8773288682865699 -2.862377160806319 -0.8504666536007568 -2.877850409404247 Q -0.8236044389149437 -2.893323658002175 -0.8074977456467793 -2.916449929469173 Q -0.791391052378615 -2.9395762009361706 -0.7866289679134091 -2.961360887106649 Q -0.7818668834482032 -2.983145573277128 -0.7813195967778408 -3.004233495822994 Q -0.7804606583912397 -3.0428114976484903 -0.7849528918551544 -3.0506102051379202 L -0.7653623804639265 -3.052662487630701 Q -0.7599757568023326 -3.0373007076059655 -0.7597464707520778 -3.006850790891676 Q -0.759517184701823 -2.976400874177387 -0.7666292698043989 -2.9526855153250793 Q -0.7737413549069749 -2.928970156472772 -0.7968321745628943 -2.898935775380134 Q -0.8199229942188136 -2.868901394287496 -0.8571834855571996 -2.847438501071015 Q -0.927371852962066 -2.8070083998957833 -0.9825493362034041 -2.8196553498502923 Q -1.0377268194447422 -2.8323022998048017 -1.0711690018983289 -2.890359344448333 Q -1.1305663110323114 -2.99347558791968 -1.113133201803188 -3.0814149801316204 Q -1.0957000925740648 -3.1693543723435607 -1.0099143101903392 -3.2187689404466218 M -0.9152162853070087 -3.219654425170453 Q -0.94284493147568 -3.2285514983344976 -0.9762060690693511 -3.2093347218499737 Q -1.0095672066630224 -3.1901179453654502 -1.018234993776812 -3.1320393824824895 Q -1.0269027808906017 -3.0739608195995287 -0.9923787229040282 -2.9899841000866796 Q -0.8187067260249796 -3.091177170501821 -0.8711161164373171 -3.182162091211833 Q -0.8875876391383374 -3.2107573520064085 -0.9152162853070087 -3.219654425170453 M -0.3003984522073341 -3.448716650929043 Q -0.1753417016330855 -3.4708482829477205 -0.15774095490956996 -3.3713937017823734 Q -0.14676227130975333 -3.3093576759069587 -0.19968824468424745 -3.266986207412672 Q -0.25261421805874157 -3.224614738918385 -0.36075682381581775 -3.204460910000048 Q -0.35645268797704677 -3.1686632227188642 -0.35279312677710795 -3.1479845474270594 Q -0.34495120992009604 -3.103673100373192 -0.32101819043053953 -3.086074504460094 Q -0.2970851709409831 -3.068475908546996 -0.26655950741498535 -3.0738781179373817 Q -0.23603384388898768 -3.079280327327768 -0.21301520172033256 -3.0955404660944392 Q -0.18999655955167744 -3.1118006048611107 -0.1781014467146259 -3.1306621077331993 Q -0.16620633387757433 -3.1495236106052884 -0.15851141356276705 -3.169165102436327 Q -0.14456817612285683 -3.2051454599900575 -0.1461365594942592 -3.214007749400831 L -0.12701786212035449 -3.2092669255562813 Q -0.12718372148589696 -3.192988949924439 -0.13733618613250143 -3.1642804588181574 Q -0.14748865077910583 -3.1355719677118756 -0.1622507276768928 -3.1156953209709433 Q -0.17701280457467983 -3.095818674230011 -0.20895042351820636 -3.0754412726238662 Q -0.2408880424617329 -3.055063871017722 -0.2832300918687619 -3.0475704837987996 Q -0.36299069656572364 -3.0334550334561783 -0.41056489327084505 -3.064133948167465 Q -0.4581390899759665 -3.094812862878752 -0.46981483285196196 -3.1607876840478437 Q -0.49055234631828226 -3.2779668440347383 -0.44421799102206255 -3.3547156389391772 Q -0.39788363572584284 -3.4314644338436167 -0.3003984522073341 -3.448716650929043 M -0.21105748518966455 -3.4173050032112346 Q -0.23400580585580172 -3.4350778639433774 -0.27191671055744404 -3.428368668410156 Q -0.3098276152590863 -3.421659472876935 -0.33775294063783345 -3.370002661104516 Q -0.3656782660165806 -3.318345849332097 -0.3618108181835882 -3.2276317773958256 Q -0.16406061949535755 -3.2636437048472313 -0.182358425495052 -3.367037081306256 Q -0.18810916452352733 -3.399532142479092 -0.21105748518966455 -3.4173050032112346 M 0.33705878574429027 -3.06915850481626 Q 0.3609830077270533 -3.0672528284220424 0.38912420400163406 -3.093099937974863 L 0.403124004543752 -3.0799467792370954 Q 0.39503446190215236 -3.0665468053621305 0.3702368049053728 -3.0574872133475823 Q 0.3454391479085933 -3.0484276213330337 0.3165307130127547 -3.0507303136427137 Q 0.2258180379947783 -3.057956003304123 0.23232909900835597 -3.139697095078563 Q 0.2351082104165903 -3.1745865854700925 0.2601976633819795 -3.2628731606097903 Q 0.28528711634736875 -3.3511597357494884 0.2875104054739563 -3.379071328062712 Q 0.29092474234692994 -3.421935559115162 0.2500541964597098 -3.425191089621951 Q 0.21715839123341069 -3.4278113946640008 0.18334035559067569 -3.387368960695869 Q 0.14952231994794069 -3.346926526727737 0.12363022956370738 -3.273751396693451 L 0.07488918651651229 -3.090041541969564 Q 0.10602951612685842 -3.0905705710415448 0.12795144735647118 -3.113903571945075 L 0.14195124789858915 -3.100750413207307 Q 0.10918745582880861 -3.067246175725935 0.06432953961112796 -3.0708193189650936 Q 0.01947162339344731 -3.0743924622042518 -0.004121589252112923 -3.0993446227732564 Q -0.027714801897673183 -3.1242967833422606 -0.024776884123253975 -3.1611799588990204 Q -0.023665239559960236 -3.175135755055632 -0.00009305266124680356 -3.2695621920572053 L 0.04749234143714835 -3.451357764798954 Q 0.017348854409417344 -3.450749332543881 -0.004573076820195435 -3.427416331640351 L -0.018572877362313375 -3.440569490378119 Q 0.014190914707467167 -3.474073727859491 0.05954725221645536 -3.470460883028786 Q 0.10490358972544357 -3.4668480381980817 0.12799838107969624 -3.4419355792206234 Q 0.15109317243394893 -3.417023120243165 0.14775823874406768 -3.3751557317733303 L 0.14728181964551323 -3.3691746762776393 Q 0.19561626474341998 -3.4596223485366724 0.28234156943093586 -3.4527142716076327 Q 0.34115528180522825 -3.4480294838051804 0.37139108039793167 -3.4120149522455243 Q 0.40162687899063504 -3.376000420685868 0.39694209118818286 -3.3171867083115756 Q 0.3944805925123181 -3.2862845882505063 0.3685134017389523 -3.1995726801678237 Q 0.3425462109655866 -3.112860772085141 0.33705878574429027 -3.06915850481626 M 0.8040548961972949 -2.9095987873315146 Q 0.8265197566155371 -2.9011530756155675 0.8607100190705715 -2.9182125584112404 L 0.8705277009739993 -2.9017015583796524 Q 0.8590487848510426 -2.891060389052829 0.8327129732296579 -2.889209706410415 Q 0.806377161608273 -2.8873590237680014 0.7792321219362301 -2.8975642587581043 Q 0.6940528595170614 -2.929587582347738 0.7229090412132149 -3.006342522110066 Q 0.7352257041323047 -3.0391037768866696 0.7837457683807889 -3.1170127196681174 Q 0.8322658326292732 -3.1949216624495658 0.8421191629645451 -3.2211306662708483 Q 0.857251063122284 -3.2613802078535326 0.8188735932411201 -3.2758082987016093 Q 0.7870483743152769 -3.287773056965868 0.7413756308941014 -3.255800404458084 Q 0.6957028874729261 -3.2238277519503007 0.6491817027260641 -3.156919012836876 L 0.5521344445427269 -2.9925571265034057 L 0.4398101424515153 -3.034785685083142 L 0.7647062451198412 -3.5835547826742262 Q 0.7355694556325449 -3.59130381476688 0.7080511222465645 -3.5749410115945004 L 0.6982334403431367 -3.591452011626089 Q 0.7389830834398605 -3.614592162608518 0.781572714649445 -3.598580500813701 Q 0.8241623458590294 -3.5825688390188843 0.8394694350669156 -3.5522423980806237 Q 0.8547765242748018 -3.5219159571423626 0.839996528771894 -3.482602451410439 Q 0.8371812915332448 -3.475114164604358 0.8289749360447641 -3.4589693286003387 L 0.7062600271178602 -3.2519088274731036 Q 0.7770127252434889 -3.323596034894956 0.8575118084088572 -3.293332234579478 Q 0.9127379236037029 -3.272569859944441 0.9318383007419428 -3.22959980533455 Q 0.9509386778801829 -3.1866297507246593 0.9301763032451458 -3.1314036355298134 Q 0.9192672589453804 -3.1023865241562505 0.8703390158283828 -3.026233539805774 Q 0.8214107727113851 -2.9500805554552967 0.8040548961972949 -2.9095987873315146 M 1.180379171695229 -2.626262867626872 Q 1.1095576732102266 -2.678496145834724 1.1488234735980056 -2.745213436846178 Q 1.0677086059236345 -2.709361264775727 1.0137876923043714 -2.7491297834112505 Q 0.9598667786851083 -2.788898302046774 0.9521167625176128 -2.844937906340555 Q 0.9443667463501174 -2.900977510634336 0.9876966248634489 -2.9597271627866673 Q 1.055362462541802 -3.0514731949149656 1.139012087526694 -3.0705451701636637 Q 1.2226617125115857 -3.089617145412362 1.2942880007520994 -3.036790307224876 Q 1.3530376529044308 -2.9934604287115447 1.3313969684419114 -2.9236844960700266 Q 1.3532277166085085 -2.9448603888371947 1.3758632545306173 -2.9654427216247283 Q 1.43541769643846 -2.9215192831317625 1.4679514875146782 -2.9049798623979823 L 1.48019443427523 -2.8996779519292657 L 1.2002982688430364 -2.6364230629407532 Q 1.226222641447282 -2.621030632818247 1.2571574360483768 -2.629279177113338 L 1.2621065626254315 -2.6107183003526813 Q 1.2165947106932413 -2.5995526685433115 1.180379171695229 -2.626262867626872 M 1.0205238917360808 -2.794485308071607 Q 1.019391674280855 -2.7735755475843593 1.0387066284131283 -2.7593301080731267 Q 1.0580215825454018 -2.7450846685618946 1.093573885903688 -2.7511702027143237 Q 1.140312987143143 -2.7589455750737666 1.187273901194374 -2.7889234427676652 Q 1.197404550196159 -2.797605029650409 1.2336264821099223 -2.8323968627213283 Q 1.2698484140236856 -2.8671886957922474 1.2936710719050635 -2.8893806080908035 Q 1.3138119818646472 -2.9217432987391407 1.315945445695213 -2.9549614915268836 Q 1.318078909525779 -2.988179684314627 1.2963495861269716 -3.004205803764763 Q 1.2569148881069134 -3.033290242766862 1.1808346972235375 -2.980677938548656 Q 1.1047545063401616 -2.9280656343304496 1.0483663082748673 -2.851610607556868 Q 1.0216561091913068 -2.815395068558855 1.0205238917360808 -2.794485308071607 M 1.5288784025332338 -2.241180358801979 Q 1.5435181838845662 -2.222162556563414 1.5815653829601692 -2.2186396823815224 L 1.5812063451854694 -2.1994336653067528 Q 1.565842690985501 -2.1964406518380573 1.5424864169414927 -2.208748554290595 Q 1.5191301428974846 -2.221056456743133 1.501440407097958 -2.244036301114733 Q 1.4459312361408225 -2.31614546793596 1.5109087271225876 -2.3661647208863457 Q 1.5386430220538285 -2.3875144020237054 1.6209396164619478 -2.4281502304122777 Q 1.7032362108700672 -2.46878605880085 1.7254236468150599 -2.485865803710738 Q 1.759497209159156 -2.5120954119652086 1.7344875826839634 -2.544584157456091 Q 1.7143578833258812 -2.5707336355341184 1.6616795988478001 -2.5686724842911577 Q 1.609001314369719 -2.5666113330481974 1.5373708645814255 -2.5367101848574216 L 1.3684507985582164 -2.449583774999591 Q 1.3897377414168415 -2.426849086443694 1.4217477698747905 -2.426250690152527 L 1.4213887321000906 -2.4070446730777575 Q 1.3745623020530773 -2.4088572538489657 1.347112712019329 -2.444515633046276 Q 1.3196631219855808 -2.4801740122435856 1.3223337481117485 -2.514410217583755 Q 1.3250043742379163 -2.548646422923924 1.3543234860223712 -2.5712160858405615 Q 1.3654172039948675 -2.5797559582955056 1.4512482671833504 -2.625636548875125 L 1.6179735254637069 -2.7123353853802845 Q 1.5972965734947207 -2.734277665509575 1.5652865450367714 -2.7348760618007413 L 1.5656455828114715 -2.754082078875511 Q 1.6124720128584848 -2.7522694981043028 1.6402265983370525 -2.7162149146936896 Q 1.6679811838156202 -2.680160331283076 1.665005562244633 -2.64632033015621 Q 1.6620299406736458 -2.6124803290293444 1.6287487867561565 -2.586860711664513 L 1.6239943361965152 -2.5832007663266796 Q 1.7234903547727556 -2.608051164461849 1.7765595621713355 -2.53911163134705 Q 1.8125490246600275 -2.4923595341772433 1.806133041726779 -2.4457753612963145 Q 1.7997170587935303 -2.3991911884153856 1.7529649616237237 -2.3632017259266935 Q 1.7284003003989101 -2.3442920083478893 1.6466823277410625 -2.3053635747203822 Q 1.5649643550832146 -2.2664351410928747 1.5288784025332338 -2.241180358801979 M 1.8975444951686502 -2.029522588861427 Q 1.92518655335968 -2.0411809171705677 1.95315752487965 -2.0301866117250644 Q 1.98112849639962 -2.019192306279561 1.992786824708761 -1.9915502480885312 Q 1.9962843232015035 -1.9832576306312222 1.998039268653632 -1.9688035597008562 Q 2.0229047286140442 -1.9999115795825062 2.0026969595448665 -2.047824480446958 Q 1.982489190475689 -2.0957373813114097 1.906132224709902 -2.1069451366193395 Q 1.829775258944115 -2.1181528919272696 1.7099930067829854 -2.0676334692543255 Q 1.6685299194964405 -2.050145976790614 1.6566863021374487 -2.022902101738526 Q 1.644842684778457 -1.9956582266864378 1.6568896240312359 -1.9670947665557068 Q 1.668936563284015 -1.938531306424976 1.6899029656231965 -1.919698888286257 Q 1.7108693679623783 -1.900866470147538 1.7319016641220153 -1.8934575216220506 Q 1.752933960281652 -1.886048573096563 1.7737939155762885 -1.8829081487453367 Q 1.811972398459182 -1.8773042710913719 1.8202650159164908 -1.8808017695841142 L 1.8198887973843676 -1.861107647120392 Q 1.8039805335182375 -1.8576540778412864 1.7737342179615907 -1.8611769169303936 Q 1.7434879024049437 -1.8646997560195007 1.7208290724445423 -1.8746786048922721 Q 1.6981702424841407 -1.8846574537650436 1.671208531331145 -1.911271662971827 Q 1.6442468201781497 -1.9378858721786103 1.6275365496017142 -1.9775061555857532 Q 1.5960590631670337 -2.0521397127015337 1.6154056836845438 -2.1053394145291895 Q 1.634752304202054 -2.158539116356845 1.6964862341620206 -2.1845760495805933 Q 1.8061330649864393 -2.2308207518735186 1.8914500470627194 -2.2022285751568766 Q 1.9767670291389996 -2.1736363984402343 2.016405345390079 -2.0796534005907326 Q 2.043219500501103 -2.016076666751364 2.0253490375261753 -1.968383411955096 Q 2.0074785745512473 -1.9206901571588282 1.9549586639882905 -1.8985393333714602 Q 1.9217881941590549 -1.884549339400491 1.8959264220165182 -1.89697587317494 Q 1.8700646498739815 -1.909402406949389 1.8587949325084785 -1.9361230632007178 Q 1.8475252151429757 -1.9628437194520467 1.858713826060298 -1.9903539900021663 Q 1.8699024369776203 -2.017864260552286 1.8975444951686502 -2.029522588861427 M 2.1377034170500218 -1.6038877772146154 Q 2.159323795562684 -1.4787416257237715 2.0597981160305956 -1.4615474664341743 Q 1.9977177416689957 -1.4508223967782867 1.9555629192677688 -1.5039210874243 Q 1.913408096866542 -1.5570197780703134 1.8936963820013164 -1.6652438433103147 Q 1.8578814039643423 -1.6610860376136678 1.8371879458438092 -1.6575110143950387 Q 1.7928448212998094 -1.6498502503551191 1.7751485654136394 -1.6259893507993355 Q 1.7574523095274697 -1.6021284512435516 1.7627297247549698 -1.571580965446574 Q 1.76800713998247 -1.5410334796495966 1.7841730728168244 -1.5179485794853085 Q 1.8003390056511788 -1.4948636793210206 1.8191517393306185 -1.4828915846209911 Q 1.8379644730100582 -1.4709194899209617 1.8575743540374163 -1.4631443650928406 Q 1.893497429387425 -1.4490542033692262 1.9023660542962249 -1.4505863561772103 L 1.8975471377710371 -1.4314871927525135 Q 1.881269975886065 -1.4317195738412531 1.8526032145301805 -1.4419892765324116 Q 1.8239364531742965 -1.4522589792235698 1.804120300508373 -1.4671021626260892 Q 1.7843041478424497 -1.4819453460286083 1.764057435680557 -1.5139659744833007 Q 1.743810723518664 -1.545986602937993 1.7364904378805186 -1.588358921946704 Q 1.7227010626086632 -1.6681765461259035 1.7535741423261595 -1.7156249702173012 Q 1.7844472220436556 -1.763073394308699 1.850469207475833 -1.7744794207681347 Q 1.9677321368255214 -1.7947378856737 2.04429093649386 -1.7480902684425574 Q 2.1208497361621985 -1.701442651211415 2.1377034170500218 -1.6038877772146154 M 2.1059269224277415 -1.514675926042699 Q 2.1237934175147983 -1.537551422830838 2.117239208280645 -1.575489429385149 Q 2.1106849990464913 -1.6134274359394598 2.059142740902468 -1.6415636337176753 Q 2.0076004827584444 -1.6696998314958906 1.9168713632597998 -1.6662031366277847 Q 1.9520748454057517 -1.4683074195321395 2.055542136008418 -1.4861825356252851 Q 2.088060427340684 -1.4918004292545595 2.1059269224277415 -1.514675926042699 M 2.124120559812024 -1.3300999968431282 Q 2.158471180914457 -1.2982246955915784 2.156047161950333 -1.2527893114503437 Q 2.1536231429862087 -1.207353927309109 2.1293239273960656 -1.1836147587957901 Q 2.1050247118059224 -1.1598755902824711 2.0630843572140134 -1.1621131462493552 L 2.057092877986598 -1.1624327971017672 Q 2.148562004489685 -1.1124888395416956 2.144726194260741 -1.0405910888127088 Q 2.1406240083214536 -0.9637004387275423 2.0607376186225794 -0.9679624500930357 Q 2.0277844828717937 -0.9697205297813019 1.9920090807615751 -0.9936604672050329 Q 1.9562336786513566 -1.017600404628764 1.9239533060904637 -1.0413538790552548 Q 1.8916729335295706 -1.0651073534817457 1.8657098568774364 -1.0664925071755311 L 1.8669884602870845 -1.0904584240851933 Q 1.903935915522814 -1.0884872438286526 1.9645556163017246 -1.0421919754151816 Q 2.0251753170806355 -0.9958967070017106 2.059626322638275 -0.9940587146003417 Q 2.0940773281959144 -0.9922207221989725 2.1072787910042905 -1.0050356111847991 Q 2.1204802538126666 -1.017850500170626 2.1218920450774865 -1.044312866758378 Q 2.123303836342306 -1.0707752333461302 2.101695015426631 -1.0974643483302255 Q 2.0800861945109554 -1.124153463314321 2.046041576432865 -1.1429939510977354 Q 1.9955538519644511 -1.1727259150086762 1.9630801924922834 -1.1834712135380654 L 1.9620816126210474 -1.1835244886801342 L 1.76528212335957 -1.2300751173162925 L 1.77167514040781 -1.3499047018646038 L 2.1366349535173352 -1.2643399029396942 Q 2.1352374681656876 -1.2944571245029781 2.1113384742261627 -1.3157606004794133 L 2.124120559812024 -1.3300999968431282" fill="#45c904" fill-rule="nonzero"></path></g><g transform="matrix(1,0,0,1,0,0)"><g transform="matrix(1,0,0,1,0,0)" clip-path="url(#SvgjsClipPath101929)"><g clip-path="url(#SvgjsClipPath101927878e37f2-4b52-41f8-8ed3-a224700ba9d7)"><path d=" M 0.802352446693346 -1.733537509688892 C 0.9136097748197984 -1.7285241812117906 0.8384098476632704 -1.6074330164571768 0.9205513065573239 -1.586994061896685 C 0.8574990599414656 -1.4498988100805539 1.0424137526161068 -1.3502107015166445 0.9008836333010011 -1.2214067237203357 C 0.8580775209195932 -1.0251156318091947 0.6533023346625872 -1.1841924007941569 0.5939136742415352 -0.9958069422507534 C 0.4211466621075639 -1.060208931148908 0.13615822021692936 -0.9915648950778213 0.04379728404263017 -1.2634415547975744 C -0.07073798962654232 -1.3783624691188319 0.16951613662226084 -1.4788218589869104 -0.02388265039824433 -1.5430310275590229 C 0.025672173394647002 -1.5582638333163703 0.0958587720740729 -1.5734966390737188 0.12940950880544633 -1.6361632450374914 C 0.15042692434406568 -1.6753057712240942 0.0931592875094791 -1.7426000650128841 0.13885770478152315 -1.7697877309848598 C 0.22967607834748316 -1.7848277164161654 0.35732313418753736 -1.7721015748973683 0.3584800561437913 -1.889914794109261 C 0.4196040994992247 -1.8108584604318865 0.5027096600234899 -1.849422525640362 0.5647978050091356 -1.9078470844312023 C 0.5547711480549322 -1.715798039692993 0.7998457824547953 -1.9221157885583378 0.802352446693346 -1.733537509688892 Z" fill="#45c904" transform="matrix(1,0,0,1,0,0)" fill-rule="nonzero"></path></g><g clip-path="url(#SvgjsClipPath101927878e37f2-4b52-41f8-8ed3-a224700ba9d7)"><path d=" M 1.003271226429504 -1.6839826858960012 C 0.9878456003461136 -1.6922739599158234 1.0248671029462504 -1.7017221558918996 1.00057174186491 -1.7157980396929937 C 0.9942086711055123 -1.716954961649248 0.9909307255627919 -1.7032647185002388 0.9830250921950545 -1.7107847112158923 C 0.9620076766564349 -1.7535908235973001 0.905896961778103 -1.7809713098953175 0.8609698258102287 -1.8048810303245726 C 0.8725390453727713 -1.8046882099985302 0.8819872413488483 -1.8208851173860898 0.8958703048238992 -1.8160646092350303 C 0.9190087439489842 -1.8098943588016745 0.9446538473126209 -1.7717159342452833 0.9648999815470705 -1.8043025693464454 C 0.9918948271930044 -1.8285979304277848 1.0331583769660726 -1.8386245873819886 1.0703726998922518 -1.8359251028173955 C 1.1075870228184306 -1.8744891680258708 1.0447275965286151 -1.9122819519301768 1.0790496145641588 -1.953545501703246 C 1.0908116544527442 -1.9560521659417964 1.1016095927111162 -1.9512316577907374 1.1097080464048965 -1.9437116650750845 C 1.1313039229216428 -1.9232727105145924 1.12050598466327 -1.8893363331311341 1.1467295490050333 -1.8735250663956586 C 1.1575274872634063 -1.8810450591113115 1.1658187612832285 -1.892999919325939 1.1800874654103641 -1.8937712006301086 C 1.2198084525750945 -1.8893363331311337 1.264157127564841 -1.892614278673854 1.2961653016878756 -1.8862512079144556 C 1.2926945358191133 -1.8696686598748113 1.27379814386696 -1.8584850809643534 1.2757263471273845 -1.842866634554921 C 1.2899950512545197 -1.84363791585909 1.29327299679724 -1.821849219016301 1.3092770838587577 -1.8330327979267593 C 1.321424764399428 -1.8260912661892337 1.3144832326619025 -1.8104728197798008 1.310626826141055 -1.8008318034776818 C 1.326052452224445 -1.789841044893267 1.3680872833016828 -1.8330327979267593 1.3607601109120726 -1.8010246238037246 C 1.3704011272141916 -1.7902266855453515 1.3462985864588946 -1.7892625839151393 1.3426350002640894 -1.7848277164161646 C 1.339742695373453 -1.7875272009807577 1.3345365465703092 -1.789648224567224 1.331065780701547 -1.7908051465234784 C 1.3065775992941642 -1.758025691096274 1.2693632763679858 -1.7402862211003756 1.2444894543085192 -1.7084708673033826 C 1.260493541370036 -1.6783908964407717 1.3025283724472743 -1.6807047403532804 1.3277878351588257 -1.6562165589458981 C 1.3183396391827495 -1.6519745117729658 1.3036852944035286 -1.6647006532917625 1.2913447935368165 -1.6631580906834238 L 1.2645427682169268 -1.6498534881865003 C 1.273990964193003 -1.6155314701509569 1.238319203875163 -1.6093612197176004 1.235041258332443 -1.5833304757018798 C 1.2300279298553412 -1.587765343200854 1.2269428046386623 -1.600298664393609 1.218844350944883 -1.6049263522186261 C 1.2095889752948488 -1.626907869387457 1.189921302038526 -1.5989489221113125 1.1770023401936867 -1.6139889075426181 C 1.162733636066551 -1.607818657109262 1.162733636066551 -1.586994061896685 1.154249541720686 -1.5752320220081 C 1.1636977376967625 -1.561734599185134 1.1550208230248555 -1.5466946137538282 1.166590042587398 -1.53551103484337 C 1.1696751678040764 -1.5204710494120648 1.1503931351998384 -1.5337756519089885 1.144801345744609 -1.5272197608235478 C 1.1374741733549991 -1.5571069113601168 1.1413305798758466 -1.5929714920039988 1.1206988049893118 -1.6180381343895078 C 1.1027665146673702 -1.6072401961311347 1.1135644529257445 -1.6382842686239583 1.0969819048861 -1.6253653067791183 L 1.0902331934746166 -1.609939680695728 C 1.0875337089100239 -1.615724290476999 1.0829060210850068 -1.6190022360197194 1.0757716690214385 -1.6159171108030415 C 1.070179879566209 -1.6066617351530077 1.0640096291328531 -1.5956709765685917 1.0607316835901328 -1.5846802179841761 C 1.0568752770692849 -1.589693546461278 1.0541757925046922 -1.6008771253717358 1.0435706745723607 -1.6020340473279904 L 1.0262168452285472 -1.5875725228748117 C 1.037207603812963 -1.6060832741748805 1.0391358070733865 -1.6261365880832876 1.031422994031692 -1.6448401597093985 C 1.021781977729573 -1.6473468239479492 1.0175399305566402 -1.6317283775385165 1.0134907037097507 -1.634042221451025 C 1.0158045476222586 -1.6377058076458302 1.0231317200118697 -1.64657554264378 1.020625055773319 -1.6523601524250506 C 0.9961368743659358 -1.6523601524250506 0.9620076766564358 -1.642911956448974 0.9473533318772149 -1.6253653067791178 C 0.9533307619845279 -1.6309570962343467 0.942340003400113 -1.6298001742780923 0.9406046204657315 -1.6334637604728972 C 0.960850754700181 -1.650239128838585 0.9870743190419444 -1.6645078329657208 1.003271226429504 -1.6839826858960012 Z" fill="#db0001" transform="matrix(1,0,0,1,0,0)" fill-rule="nonzero"></path></g><g clip-path="url(#SvgjsClipPath101927878e37f2-4b52-41f8-8ed3-a224700ba9d7)"><path d=" M -0.3522556656484144 -0.32189990273264124 C -0.35939001771198265 -0.3255634889274468 -0.3422290086942106 -0.32999835642642106 -0.3532197672786266 -0.3363614271858202 C -0.35611207216926233 -0.33693988816394693 -0.35765463477760107 -0.33057681740454825 -0.36131822097240596 -0.3340475832733114 C -0.3707664169484828 -0.35352243620359136 -0.3967971609642039 -0.3660557573963463 -0.41723611552469564 -0.37704651598076167 C -0.41202996672155134 -0.37685369565471927 -0.4077879195486189 -0.38437368837037145 -0.4012320284631783 -0.38225266478390596 C -0.3908197308568898 -0.37955318021931284 -0.3788648706422626 -0.362006530549456 -0.36980231531827057 -0.37666087532867687 C -0.35746181445155867 -0.3876516339130922 -0.33856542249940524 -0.39247214206415215 -0.32140441348163384 -0.39112239978185537 C -0.3042434044638622 -0.4086690494517118 -0.333166453370219 -0.4262156991215682 -0.31754800696078633 -0.444919270747679 C -0.31234185815764226 -0.44588337237789055 -0.3071357093544984 -0.4439551691174668 -0.30366494348573525 -0.4404844032487041 C -0.29363828653153146 -0.43103620727262726 -0.2986516150086338 -0.41561058118923766 -0.28688957512004865 -0.4084762291256694 C -0.28187624664294675 -0.41194699499443255 -0.2780198401220988 -0.4175387844496612 -0.27165676936270056 -0.4177316047757036 C -0.25353165871471695 -0.4158034015152796 -0.23328552448026696 -0.4171531437975764 -0.2186311797010465 -0.41426083890694043 C -0.2201737423093857 -0.40674084619128825 -0.2288506569812927 -0.4015346973881435 -0.22807937567712333 -0.39440034532457524 C -0.22171630491772465 -0.39459316565061764 -0.2201737423093857 -0.3845665086964143 -0.21284656991977569 -0.389965477825601 C -0.20725478046454682 -0.38668753228288066 -0.21053272600726713 -0.3797460005453548 -0.21226810894164827 -0.3751183127203377 C -0.20513375687808066 -0.37010498424323623 -0.18604454459988484 -0.389965477825601 -0.189515310468648 -0.3753111330463801 C -0.18508044296967308 -0.3702978045692782 -0.19607120155408864 -0.369719343591151 -0.19761376416242737 -0.3677911403307279 C -0.19896350644472371 -0.36894806228698185 -0.20127735035723227 -0.37010498424323623 -0.20281991296557145 -0.3704906248953206 C -0.213810671549987 -0.3554506394640149 -0.23097168056775885 -0.3471593654441927 -0.24254090013030183 -0.332890661317057 C -0.23521372774069138 -0.3192004181680481 -0.21593169513645383 -0.3201645197982601 -0.20455529589995303 -0.3087881205617595 C -0.20879734307288556 -0.306859917301336 -0.2155460544843686 -0.3124517067565651 -0.2213306642656403 -0.31206606610447984 L -0.2334783448063098 -0.3060886359971664 C -0.22904347730733554 -0.29066300991377547 -0.24562602534697997 -0.28757788469709755 -0.2467829473032339 -0.2756230244824702 C -0.24909679121574246 -0.27755122774289376 -0.250446533498039 -0.2833358375241657 -0.25411011969284436 -0.2854568611106312 C -0.25835216686577644 -0.29548351806483497 -0.2672219018637263 -0.28275737654603805 -0.27319933197103974 -0.28950608795752153 C -0.2797552230564808 -0.2864209627408436 -0.2797552230564808 -0.2771655870908094 -0.28361162957732833 -0.27176661796162316 C -0.27917676207835385 -0.2655963675282669 -0.28303316859920113 -0.258654835790741 -0.27801984012209924 -0.2534486869875967 C -0.2766700978398029 -0.24650715525007127 -0.28553983283775164 -0.25267740568342756 -0.28804649707630303 -0.2497851007927916 C -0.2915172629450662 -0.26328252361575855 -0.2895890596846422 -0.279865071655403 -0.2990372556607186 -0.2914342912179455 C -0.3071357093544984 -0.28642096274084405 -0.3021223808773965 -0.3006896668679797 -0.30983519391909176 -0.2947122367606658 L -0.3129203191357697 -0.28777070502313995 C -0.3142700614180667 -0.2902773692616907 -0.31639108500453283 -0.29201275219607226 -0.31947621022121075 -0.29047018958773263 C -0.32217569478580366 -0.28622814241480077 -0.32468235902435505 -0.28121481393769887 -0.3262249216326938 -0.276201485460597 C -0.32815312489311776 -0.2785153293731053 -0.32911722652333 -0.28372147817624915 -0.3341305550004312 -0.283914298502292 L -0.34203618836816885 -0.27716558709080896 C -0.33702285989106695 -0.2856496814366736 -0.33625157858689714 -0.29490505708670733 -0.3397223444556603 -0.3033891514325724 C -0.34415721195463456 -0.3045460733888272 -0.346085415215059 -0.29741172132525895 -0.34782079814943967 -0.2985686432815129 C -0.3468566965192279 -0.30030402621589447 -0.3433859306504652 -0.3043532530627848 -0.3447356729327615 -0.30685991730133555 C -0.35611207216926233 -0.30685991730133555 -0.37153769825265215 -0.30261787012840324 -0.3782864096641355 -0.2945194164346234 C -0.3755869250995427 -0.29702608067317415 -0.3806002535766442 -0.2964476196950474 -0.38137153488081355 -0.298183002629429 C -0.371730518578695 -0.3062814563232088 -0.3597756583640672 -0.3128373474086499 -0.3522556656484144 -0.32189990273264124 Z" fill="#f7de01" transform="matrix(1,0,0,1,0,0)" fill-rule="nonzero"></path></g><g clip-path="url(#SvgjsClipPath101927878e37f2-4b52-41f8-8ed3-a224700ba9d7)"><path d=" M -0.8842469451993357 -2.032794655706663 C -0.8913812972629038 -2.0364582419014683 -0.8742202882451321 -2.040893109400443 -0.8852110468295475 -2.0472561801598412 C -0.8881033517201833 -2.0478346411379684 -0.8896459143285222 -2.04147157037857 -0.8933095005233275 -2.044942336247333 C -0.9027576964994037 -2.064417189177613 -0.9287884405151251 -2.0769505103703674 -0.9492273950756172 -2.087941268954783 C -0.9440212462724731 -2.0877484486287408 -0.9397791990995408 -2.0952684413443934 -0.9332233080140997 -2.093147417757927 C -0.9228110104078113 -2.090447933193334 -0.910856150193184 -2.0729012835234775 -0.9017935948691922 -2.087555628302698 C -0.8894530940024801 -2.0985463868871137 -0.8705567020503269 -2.103366895038173 -0.8533956930325552 -2.1020171527558764 C -0.8362346840147835 -2.119563802425733 -0.8651577329211403 -2.1371104520955893 -0.8495392865117076 -2.1558140237217 C -0.8443331377085634 -2.156778125351912 -0.8391269889054191 -2.154849922091488 -0.8356562230366565 -2.1513791562227254 C -0.8256295660824527 -2.1419309602466488 -0.8306428945595544 -2.1265053341632583 -0.8188808546709695 -2.1193709820996904 C -0.8138675261938674 -2.1228417479684536 -0.8100111196730201 -2.1284335374236827 -0.8036480489136215 -2.1286263577497246 C -0.7855229382656379 -2.126698154489301 -0.7652768040311883 -2.128047896771598 -0.7506224592519676 -2.125155591880962 C -0.7521650218603065 -2.1176355991653093 -0.7608419365322134 -2.112429450362165 -0.7600706552280438 -2.1052950982985967 C -0.7537075844686455 -2.105487918624639 -0.7521650218603065 -2.095461261670436 -0.7448378494706958 -2.100860230799622 C -0.7392460600154669 -2.0975822852569017 -0.7425240055581872 -2.090640753519376 -0.7442593884925688 -2.086013065694359 C -0.7371250364290006 -2.0809997372172573 -0.7180358241508052 -2.100860230799622 -0.721506590019568 -2.0862058860204016 C -0.7170717225205931 -2.0811925575432997 -0.7280624811050088 -2.0806140965651725 -0.7296050437133478 -2.078685893304749 C -0.7309547859956445 -2.079842815261003 -0.733268629908153 -2.0809997372172573 -0.7348111925164921 -2.081385377869342 C -0.7458019511009075 -2.066345392438037 -0.7629629601186791 -2.0580541184182146 -0.7745321796812219 -2.0437854142910785 C -0.7672050072916117 -2.0300951711420696 -0.7479229746873738 -2.031059272772281 -0.7365465754508737 -2.019682873535781 C -0.7407886226238058 -2.0177546702753575 -0.7475373340352889 -2.023346459730586 -0.7533219438165606 -2.0229608190785013 L -0.7654696243572301 -2.016983388971188 C -0.7610347568582555 -2.0015577628877974 -0.7776173048978999 -1.9984726376711195 -0.7787742268541542 -1.986517777456492 C -0.7810880707666628 -1.988445980716916 -0.7824378130489594 -1.9942305904981872 -0.7861013992437644 -1.9963516140846533 C -0.790343446416697 -2.006378271038857 -0.7992131814146465 -1.99365212952006 -0.8051906115219598 -2.000400840931543 C -0.8117465026074009 -1.997315715714865 -0.8117465026074009 -1.9880603400648311 -0.8156029091282485 -1.9826613709356447 C -0.8111680416292736 -1.9764911205022886 -0.8150244481501212 -1.9695495887647625 -0.8100111196730193 -1.9643434399616186 C -0.808661377390723 -1.9574019082240928 -0.8175311123886722 -1.9635721586574488 -0.8200377766272229 -1.960679853766813 C -0.8235085424959857 -1.97417727658978 -0.8215803392355618 -1.9907598246294245 -0.8310285352116383 -2.002329044191967 C -0.8391269889054181 -1.997315715714865 -0.8341136604283164 -2.011584419842001 -0.8418264734700115 -2.0056069897346873 L -0.8445259580346047 -1.9986654579971619 C -0.8458757003169014 -2.0011721222357126 -0.8479967239033679 -2.0029075051700937 -0.8510818491200459 -2.0013649425617555 C -0.8537813336846392 -1.9971228953888227 -0.8562879979231899 -1.9921095669117208 -0.8578305605315288 -1.9870962384346194 C -0.8597587637919525 -1.9894100823471281 -0.8607228654221647 -1.9946162311502718 -0.8657361938992664 -1.9948090514763146 L -0.8736418272670039 -1.9880603400648311 C -0.868628498789902 -1.9965444344106957 -0.8678572174857326 -2.00579981006073 -0.8713279833544954 -2.0142839044065948 C -0.8757628508534698 -2.015440826362849 -0.8776910541138936 -2.008306474299281 -0.8794264370482752 -2.0094633962555353 C -0.8784623354180632 -2.011198779189917 -0.8749915695493002 -2.0152480060368063 -0.8763413118315971 -2.017754670275358 C -0.8877177110680976 -2.017754670275358 -0.9031433371514876 -2.013512623102425 -0.9098920485629709 -2.0054141694086454 C -0.9071925639983776 -2.0079208336471965 -0.9122058924754795 -2.0073423726690693 -0.9129771737796488 -2.0090777556034505 C -0.903721798129616 -2.0171762092972303 -0.8915741175889461 -2.023732100382671 -0.8842469451993357 -2.032794655706663 Z" fill="#01acf5" transform="matrix(1,0,0,1,0,0)" fill-rule="nonzero"></path></g><g clip-path="url(#SvgjsClipPath101927878e37f2-4b52-41f8-8ed3-a224700ba9d7)"><path d=" M 0.7795996482203453 -1.3743132422719417 C 0.7950252743037358 -1.328422004673856 0.8848795462394843 -1.2993061354414568 0.8708036624383897 -1.2534148978433706 C 0.8405308712497364 -1.2536077181694127 0.8285760110351095 -1.2308549196964125 0.8343606208163805 -1.2040528943765214 C 0.8522929111383217 -1.1811072755774787 0.8902785153686705 -1.1865062447066654 0.8979913284103656 -1.1539196096055035 C 0.8152714085381854 -1.0744776352760432 0.8812159600446792 -1.0567381652801449 0.830311393969491 -0.9616777445412523 C 0.8499790672258138 -0.923306499658819 0.9080179853645693 -0.9287054687880054 0.9500528164418076 -0.9225352183546496 C 0.9419543627480282 -0.8976613962951829 0.9219010488396207 -0.9267772655275821 0.9080179853645693 -0.9190644524858869 C 1.0053922500159704 -0.8571691278262832 1.1295685399872621 -0.8639178392377662 1.2373551022449518 -0.8114707105542396 C 1.2134453818156967 -0.8133989138146631 1.209010514316722 -0.7678933168686619 1.212866920837569 -0.7659651136082379 L 0.9809040686085886 -0.8118563512063239 C 0.825683706144474 -0.6718687944995576 0.78403451571932 -0.5004515246478829 0.7661022253973793 -0.2983758229554705 C 0.7556899277910916 -0.24130100644692698 0.8773595535238321 -0.2345522950354435 0.806980134518364 -0.18750413548110378 C 0.6909022982408521 -0.1865400338508918 0.6704633436803598 -0.35448653783380335 0.5640265237049671 -0.33443322392539576 C 0.45951790698999884 -0.27041687567932593 0.32088009256552863 -0.22761076329791807 0.23044735965165297 -0.19001079971965407 C 0.15042692434406613 -0.1907820810238232 0.23758171171522102 -0.31592247262532736 0.13114489173982835 -0.2862281424148012 C 0.12092541445958238 -0.2671389301366056 0.12073259413353998 -0.23860152188233386 0.09470185011781873 -0.22741794297187523 C 0.06500751990729259 -0.2561481715521903 0.11359824206997171 -0.32826297349203903 0.043411643390546484 -0.3384824507722852 C 0.009475266007088257 -0.33096245805663305 0.01892346198316397 -0.27388764154808865 -0.02889597887534534 -0.2968332603471313 C -0.06071133267233764 -0.33134809870871695 0.01757371970086763 -0.36509165576613345 -0.03390930735244724 -0.3999921347798039 C -0.07729388071198207 -0.48811102378117055 -0.11431538331211866 -0.3720331875036593 -0.1640630274310524 -0.4009562364100159 C -0.16984763721232365 -0.42775826172990605 -0.14748047939140752 -0.4599592561789836 -0.1272343451569582 -0.47885564813113657 C -0.14111740863200928 -0.5093212596458325 -0.1623276444966708 -0.5727591469137749 -0.20224145198744314 -0.6014893754940895 C -0.22229476589585007 -0.5824001632158937 -0.26047319045224127 -0.567360177784588 -0.2865039344679625 -0.5660104355022917 C -0.2720424100147838 -0.6213498690764541 -0.20744760079058722 -0.6759180213464469 -0.21477477318019766 -0.7466830810040004 C -0.23810603263132557 -0.8060717414250527 -0.28515419218566596 -0.7187241337278554 -0.30250802152947975 -0.7796553567572468 C -0.2780198401220979 -0.8062645617510948 -0.21612451546249467 -0.809349686967773 -0.20378401459578233 -0.8511916977189695 L -0.25314601806263126 -0.9277413671577932 C -0.17177584047274763 -1.0891319800552643 -0.016748298334675837 -1.1720447202534863 0.04071215882595358 -1.3453901933655845 C 0.14522077554092228 -1.38067631303134 0.2258196718266361 -1.456454701165994 0.29851293474461293 -1.5266412998454197 C 0.3241580381082494 -1.4900054378973677 0.341897508104148 -1.4576116231222485 0.3920307928751663 -1.4570331621441213 C 0.41613333363046356 -1.4740013508358505 0.44428510123265097 -1.4890413362671562 0.4687732826400328 -1.5060095249588854 C 0.4944183860036693 -1.49829671191719 0.49249018274324485 -1.4659028971420702 0.5223773332798138 -1.4655172564899859 L 0.5827300953310779 -1.5033100403942918 C 0.612424425541604 -1.464938795511859 0.6261146686906132 -1.4151911513929252 0.6741269298751653 -1.4015009082439165 C 0.7119197137794717 -1.3781696487927886 0.7342868716003876 -1.420204479870027 0.762438639202575 -1.4352444653013328 C 0.7840345157193196 -1.4202044798700277 0.7797924685463877 -1.3934024545501367 0.7795996482203453 -1.3743132422719417 Z" fill="#01acf5" transform="matrix(1,0,0,1,0,0)" fill-rule="nonzero"></path></g><g clip-path="url(#SvgjsClipPath101927878e37f2-4b52-41f8-8ed3-a224700ba9d7)"><path d=" M 0.883529803957187 -1.1743585641659953 C 0.8684898185258818 -1.1853493227504108 0.8465083013570507 -1.1878559869889618 0.8341678004903386 -1.2042457147025643 C 0.8283831907090666 -1.2310477400224549 0.8407236915757792 -1.2538005384954551 0.8706108421123477 -1.2536077181694134 C 0.8848795462394843 -1.2994989557674992 0.7952180946297778 -1.3286148249998977 0.7794068278943029 -1.3745060625979846 C 0.7795996482203453 -1.39359527487618 0.7838416953932772 -1.4203973001960704 0.761860178224447 -1.4358229262794608 C 0.7337084106222596 -1.4207829408481552 0.7115340731273856 -1.3789409300969595 0.6735484688970372 -1.4020793692220446 C 0.6255362077124846 -1.4157696123710537 0.6120387848895188 -1.4657100768160296 0.5821516343529498 -1.5038885013724204 L 0.5217988723016853 -1.466095717468114 C 0.491911721765117 -1.4662885377941564 0.49403274535158315 -1.498875172895318 0.4681948216619043 -1.5065879859370133 C 0.444092280906607 -1.4898126175713267 0.41574769297837744 -1.4745798118139786 0.3914523318970382 -1.4576116231222493 C 0.3413190471260199 -1.4581900841003765 0.32377239745616326 -1.4905838988754962 0.2979344737664851 -1.5272197608235483 C 0.22524121084850823 -1.457033162144123 0.14464231456279442 -1.3814475943355105 0.040133697847825056 -1.3459686543437126 C 0.034349088066553346 -1.3286148249998988 0.027021915676943342 -1.3131891989165083 0.019694743287332894 -1.2973779321810335 C 0.024900892090477633 -1.286387173596618 0.03184242382800284 -1.2750107743601173 0.043411643390545374 -1.2638271954496594 C 0.13615822021692936 -0.9917577154038641 0.4209538417815222 -1.060208931148908 0.5935280335894499 -0.9961925829028386 C 0.6473249045552738 -1.165681649494088 0.8189349947329905 -1.0540386807155515 0.883529803957187 -1.1743585641659953 Z" fill="#23bb7d" transform="matrix(1,0,0,1,0,0)" fill-rule="nonzero"></path></g><g clip-path="url(#SvgjsClipPath101927878e37f2-4b52-41f8-8ed3-a224700ba9d7)"><path d=" M 0.07580545816566486 -1.6286432523218386 C -0.0020939535554558297 -1.4543336775795286 0.24143811823606787 -1.3505963421687293 0.24317350117044945 -1.166838571450343 C 0.23642478975896597 -1.0823832686437813 0.12690284456689538 -1.1502560234106982 0.10164338185534372 -1.074670455602086 C 0.13808642347735267 -1.0569309856061877 0.1654669097753707 -1.0216448659404322 0.1990176465067448 -1.0125823106164407 C 0.16508126912328658 -0.9925289967080335 0.07696238012191947 -1.028007936699831 0.06693572316771612 -0.9524223688912186 C 0.05401676132287658 -0.8855137157545134 0.08718185740216589 -0.803757897512545 0.1078136322887 -0.7424410338310687 C 0.011981930245638095 -0.6207714080983282 -0.3383726021733633 -0.7547815346977806 -0.22441578948231733 -0.49428127421452794 C -0.2670290815376828 -0.5295673938802834 -0.2633654953428779 -0.6082380869055735 -0.3214044134816332 -0.6144083373389293 C -0.40103920813713545 -0.5945478437565646 -0.35399104858279506 -0.3816742038057792 -0.48453040931348546 -0.46690078791651035 C -0.49340014431143464 -0.4931243522582738 -0.5086329500687826 -0.5228186824687999 -0.5423765071261989 -0.5023797279083078 C -0.6314594977577779 -0.47981974976134967 -0.5620441803825214 -0.3510157719650411 -0.641678975038024 -0.3456168028358544 C -0.6866061110058976 -0.44800439596435737 -0.8055762521740452 -0.49852332138746047 -0.786101399243765 -0.6207714080983282 C -0.8341136604283168 -0.6880657018871184 -0.9295597218192942 -0.6248206349452183 -0.9754509594173804 -0.639860620376524 C -1.088058029826129 -0.6871016002569061 -0.9646530211590072 -0.8176409609875965 -1.0587493402676875 -0.8851280751024286 C -1.1478323308992664 -0.8625680969554708 -1.2668024720674136 -0.8693168083669542 -1.3429665008541527 -0.9281270078098789 C -1.2353727589225059 -0.9853946446444655 -1.342002399223941 -1.0592448295186963 -1.3630198147625603 -1.1061001687469938 C -1.187938958716081 -1.1892057292712588 -1.3911715823647475 -1.3687214528167129 -1.255811713482998 -1.4491275287763843 C -1.2893624502143717 -1.458190084100376 -1.3414239382458137 -1.446813684863876 -1.3412311179197716 -1.4907767192015382 C -1.2766363086955752 -1.5252915575631234 -1.201243561213005 -1.4227111441085787 -1.160558472418063 -1.5274125811495902 C -1.1568948862232582 -1.576967404942481 -1.0653052313531286 -1.5906576480914898 -1.0923000769990612 -1.6550596369896444 C -1.0980846867803324 -1.6870678111126791 -1.1836969115431484 -1.6849467875262134 -1.1466754089430118 -1.7254390559951127 C -1.0369606434248986 -1.715990860019036 -0.9258961356244888 -1.808351796193335 -0.8215803392355621 -1.8598348232466497 C -0.75409322512073 -1.8856727469363288 -0.7396317006675516 -1.7686308090286054 -0.6779291963339902 -1.8413240719465822 C -0.6653958751412355 -1.8791168558508882 -0.7110942924132795 -1.9232727105145928 -0.6677097190537445 -1.9606798537668142 C -0.4754678539894933 -1.90360503725827 -0.2477470489334448 -1.7416359633826723 -0.002479594207539959 -1.7979394985870467 C 0.058451628821851065 -1.7541692845754266 0.07927622403442802 -1.6926596005679082 0.07580545816566486 -1.6286432523218386 Z" fill="#f6008f" transform="matrix(1,0,0,1,0,0)" fill-rule="nonzero"></path></g><g clip-path="url(#SvgjsClipPath101927878e37f2-4b52-41f8-8ed3-a224700ba9d7)"><path d=" M 0.2427878605183642 -1.1668385714503426 C 0.24201657921419484 -1.254764640125667 0.18571304400982025 -1.324565598153008 0.13596539989088696 -1.392438352919925 C 0.10627106968036082 -1.373927601619856 0.07484135653545354 -1.3577306942322964 0.04071215882595203 -1.3459686543437115 C -0.01674829833467628 -1.172816001557656 -0.17177584047274852 -1.0900960816854754 -0.25314601806263215 -0.9283198281359208 L -0.2037840145957832 -0.8517701586970965 C -0.21612451546249511 -0.8099281479459008 -0.2780198401220988 -0.8064573820771377 -0.3025080215294813 -0.7802338177353743 C -0.28496137185962467 -0.7189169540538976 -0.23810603263132668 -0.8064573820771377 -0.21477477318019877 -0.7472615419821274 C -0.2082188820947577 -0.6851733969964813 -0.25700242458347966 -0.6354257528775475 -0.27917676207835296 -0.5868350307148691 C -0.27551317588354785 -0.58124324125964 -0.2724280506668699 -0.5756514518044107 -0.26915010512414916 -0.5694812013710546 C -0.26182293273453916 -0.5712165843054362 -0.2544957603449287 -0.573530428217945 -0.24678294730323347 -0.5762299127825377 C -0.25314601806263215 -0.7248943841612117 0.024129610786308264 -0.6365826748338022 0.10781363228869956 -0.7426338541571103 C 0.0869890370761226 -0.8039507178385863 0.05401676132287614 -0.8858993564065971 0.06693572316771568 -0.9526151892172594 C 0.07657673946983423 -1.0282007570258713 0.16508126912328613 -0.9927218170340744 0.19901764650674414 -1.0127751309424815 C 0.16546690977537026 -1.0218376862664735 0.13827924380339507 -1.0571238059322285 0.10164338185534305 -1.0748632759281276 C 0.12651720391481014 -1.1502560234106982 0.2360391491068814 -1.0823832686437809 0.2427878605183642 -1.1668385714503426 Z" fill="#7c56c2" transform="matrix(1,0,0,1,0,0)" fill-rule="nonzero"></path></g><g clip-path="url(#SvgjsClipPath101927878e37f2-4b52-41f8-8ed3-a224700ba9d7)"><path d=" M 0.2086586628088638 -2.1631411961113107 C 0.2688186045340859 -2.172203751435302 0.18976227085671082 -2.0717443615672235 0.2857867932258149 -2.0825422998255965 C 0.3060329274602649 -2.0917976754756307 0.2842442306174757 -2.135953530139335 0.3222298348478241 -2.1319043032924454 C 0.4737866111171338 -2.058246938744257 0.6862746104158337 -2.0985463868871137 0.8605841851581439 -2.123805849598665 C 0.8281903703830247 -2.101245871451707 0.8397595899455672 -2.0381936248358494 0.7915545084349727 -2.0231536394045437 C 0.7153904796482335 -1.993073668541933 0.5615198594664152 -2.0441710549431633 0.5786808684841878 -1.9159455381249817 C 0.5595916562059919 -1.79581847500058 0.47050866557441284 -1.6859108891564247 0.36387902527297844 -1.6180381343895074 C 0.3484533991895882 -1.4387152311700955 0.6027834092394848 -1.4635890532295626 0.6012408466311461 -1.2823379467497273 C 0.5750172822893822 -1.252065155561074 0.5347178341465257 -1.2428097799110391 0.49692505024221933 -1.2468590067579295 C 0.39299489450537806 -1.2591995076246412 0.3480677585375034 -1.3719993983594332 0.2416309385621107 -1.3615871007531442 C 0.22909761736935597 -1.3197450900019485 0.23276120356416108 -1.269997445883015 0.1965109822681943 -1.2399174750204036 C 0.079854685012555 -1.1720447202534863 -0.03333084637432071 -1.0738991742979158 -0.13359741591635732 -1.0268510147435754 C -0.16117072254041775 -1.0787196824489753 -0.13456151754656953 -1.1469780778679768 -0.17428250471129947 -1.1855421430764528 C -0.21072554633330864 -1.1552693518877994 -0.2683788238199798 -1.2073308399192413 -0.28669675479400625 -1.1444714136294258 C -0.3347090159785584 -1.1392652648262818 -0.35032746238799106 -1.1946046984004444 -0.36208950227657577 -1.22911953676203 C -0.42822687410911153 -1.2279626148057754 -0.4457735237789682 -1.0255012724612786 -0.49706373050624064 -1.127310404611654 C -0.5470041949512167 -1.1373370615658582 -0.4845304093134859 -1.1884344479670879 -0.4845304093134859 -1.2073308399192413 C -0.4706473458384348 -1.2054026366588175 -0.4525222351904511 -1.210801605788004 -0.44037455464978115 -1.2146580123088513 C -0.4471232660612646 -1.352138904777067 -0.3859992227058302 -1.4757367337702316 -0.3888915275964664 -1.6112894229780235 C -0.4986062931145794 -1.6598801451407024 -0.6073569570024806 -1.5690617715747424 -0.7294122233873059 -1.5852586789623022 C -0.7132153159997462 -1.6155314701509553 -0.6451497409067866 -1.6112894229780235 -0.6148769497181334 -1.6396340109062526 L -0.5720708373367256 -1.729102642189916 C -0.6734943288350164 -1.8023743660860196 -0.5907744089628362 -1.8912645363915561 -0.6401364124296852 -1.968199846482465 C -0.6162266920004303 -1.9658860025699565 -0.5801692910305054 -1.9390839772500659 -0.5481611169074707 -1.9427475634448714 C -0.4743109320332398 -1.9022552949759721 -0.48356630768327413 -2.0165977483191018 -0.4155007325903145 -2.0029075051700937 C -0.3910125511829321 -2.0484131021160943 -0.4367109684549756 -2.1043309966683843 -0.44018173432373875 -2.153885820461275 C -0.49609962887602843 -2.1714324701311316 -0.5055478248521051 -2.228700106965718 -0.5614657194043947 -2.2369913809855406 C -0.6033077301555909 -2.2716990396731687 -0.5209734509354955 -2.2747841648898466 -0.5207806306094531 -2.3035143934701607 C -0.43536122617267925 -2.237955482615752 -0.36613872912346557 -2.1324827642705713 -0.2543029400188863 -2.106837660906935 C -0.22981475861150447 -2.171625290457174 -0.1904794120988591 -2.066345392438036 -0.17389686405921534 -2.13479660818308 L -0.1893224901426056 -2.190136041757243 C -0.16926917623419846 -2.180302205129081 -0.14940868265183327 -2.180302205129081 -0.13706818178512092 -2.2032478239281246 C -0.1428527915663922 -2.2394980452240913 -0.15037278428204504 -2.28153287630133 -0.16618405101751965 -2.3179759179233397 C -0.1442025338486892 -2.311998487816026 -0.11238718005169623 -2.2869318454305168 -0.08211438886304268 -2.3056354170566276 L -0.06746004408382222 -2.380064062908985 C -0.05608364484732187 -2.3073707999910087 -0.016555478008634328 -2.24991034283038 0.04514702632492695 -2.2150098638167095 C 0.07715520044796165 -2.2281216459875917 0.0538239409968333 -2.277869290106525 0.0696352077323088 -2.279604673040906 C 0.07156341099273278 -2.2643718672835584 0.0711777703406482 -2.226000622401125 0.09123108424905557 -2.2165524264250482 C 0.15775409673367569 -2.265528789239813 0.228519156391229 -2.360589209978705 0.22929043769539836 -2.4369460590914866 C 0.22504839052246584 -2.410336854097639 0.25320015812465324 -2.435017855831063 0.26534783866532274 -2.428847605397707 C 0.24837964997359374 -2.340343075744256 0.20942994411303317 -2.2493318818522536 0.2086586628088638 -2.1631411961113107 Z" fill="#f7de01" transform="matrix(1,0,0,1,0,0)" fill-rule="nonzero"></path></g><g clip-path="url(#SvgjsClipPath101927878e37f2-4b52-41f8-8ed3-a224700ba9d7)"><path d=" M 0.36407184559902084 -1.6182309547155498 C 0.4568184224254046 -1.6770411541584753 0.5358747561027792 -1.7678595277244353 0.5674972895737298 -1.869283019222726 C 0.5651834456612213 -1.8800809574810993 0.5638337033789249 -1.8922286380217688 0.5646049846830943 -1.9084255454093286 C 0.5023240193714062 -1.8498081662924455 0.41941127917318344 -1.81124410108397 0.35828723581774957 -1.8904932550873874 C 0.35732313418753736 -1.772487215549452 0.2296760783474836 -1.7854061773942915 0.13866488445548075 -1.7703661919629858 C 0.09296646718343671 -1.7429857056649678 0.15023410401802328 -1.6760770525282633 0.12921668847940393 -1.6367417060156175 C 0.09566595174803005 -1.574075100051845 0.025479353068604604 -1.558842294294497 -0.024075470724286285 -1.543609488537149 C 0.1691304959701767 -1.4792074996389943 -0.07073798962654188 -1.378940930096958 0.043604463716588215 -1.2640200157757002 C 0.05613778490934296 -1.227191333501606 0.07214187197085975 -1.1971113626389953 0.09123108424905557 -1.1716590796014017 C 0.1259387429366836 -1.1957616203566988 0.16103204227639645 -1.2192857001338686 0.19670380259423603 -1.2399174750204032 C 0.23295402389020325 -1.2701902662090563 0.22929043769539836 -1.3197450900019476 0.24182375888815266 -1.3615871007531437 C 0.34787493821146054 -1.3723850390115169 0.3929948945053776 -1.2593923279506831 0.4971178705682615 -1.2468590067579288 C 0.5349106544725681 -1.2428097799110387 0.5750172822893822 -1.2518723352350307 0.601433666957188 -1.2823379467497267 C 0.6031690498915692 -1.4635890532295626 0.3484533991895882 -1.4389080514961383 0.36407184559902084 -1.6182309547155498 Z" fill="#9ed303" transform="matrix(1,0,0,1,0,0)" fill-rule="nonzero"></path></g><g clip-path="url(#SvgjsClipPath101927878e37f2-4b52-41f8-8ed3-a224700ba9d7)"><path d=" M 0.07580545816566486 -1.6286432523218386 C 0.07946904436047042 -1.6926596005679082 0.058451628821851065 -1.7539764642493842 -0.0020939535554558297 -1.7983251392391315 C -0.23155014154588605 -1.7454923699035199 -0.4461591644310524 -1.884515824980074 -0.6303025758015238 -1.949110634204271 C -0.6027292691774634 -1.8769958322644218 -0.6646245938370671 -1.7963969359787075 -0.5716851966846404 -1.7291026421899176 L -0.6144913090660482 -1.6396340109062546 C -0.6447641002547019 -1.6112894229780248 -0.712636855021619 -1.6155314701509573 -0.729026582735221 -1.5852586789623042 C -0.6071641366764382 -1.5690617715747441 -0.49822065246249414 -1.6598801451407046 -0.38850588694438115 -1.6112894229780248 C -0.3856135820537455 -1.4759295540962754 -0.4467376254091794 -1.3521389047770684 -0.43998891399769646 -1.2146580123088533 C -0.45213659453836597 -1.2109944261140477 -0.4702617051863496 -1.2054026366588193 -0.4841447686614012 -1.2073308399192428 C -0.4841447686614012 -1.1882416276410475 -0.5466185542991314 -1.1371442412398174 -0.49667808985415596 -1.127310404611656 C -0.44538788312688304 -1.0258869131133652 -0.42784123345702685 -1.2279626148057774 -0.3617038616244912 -1.2291195367620313 C -0.3499418217359058 -1.194797518726488 -0.3343233753264736 -1.139265264826283 -0.286311114141921 -1.1444714136294278 C -0.26799318316789567 -1.2073308399192428 -0.21014708535518212 -1.155269351887801 -0.17389686405921423 -1.1855421430764541 C -0.1341758768944843 -1.1469780778679788 -0.16078508188833252 -1.0787196824489769 -0.13321177526427275 -1.0268510147435774 C -0.032945205722235915 -1.0737063539718754 0.08024032566464023 -1.1720447202534883 0.19689662292027887 -1.2399174750204056 C 0.2063448188963557 -1.248015928714185 0.21290070998179678 -1.2572713043642192 0.21810685878494063 -1.2674907816444654 C 0.15756127640763373 -1.3941737358543065 0.01313885220189226 -1.4886556956150714 0.07580545816566486 -1.6286432523218386 Z" fill="#f76f48" transform="matrix(1,0,0,1,0,0)" fill-rule="nonzero"></path></g><g clip-path="url(#SvgjsClipPath101927878e37f2-4b52-41f8-8ed3-a224700ba9d7)"><path d=" M 0.6187874963010018 -0.6705190522172613 L -0.8071188147823847 -0.6705190522172613 C -0.8933095005233277 -0.6705190522172613 -0.963881739854838 -0.7374277053539668 -0.9648458414850498 -0.8191835235959353 L -0.9742940374611262 -1.5812094521154139 C -0.9748724984392535 -1.6217017205843134 -0.9584827707256515 -1.6600729654667468 -0.9287884405151251 -1.6888031940470611 C -0.8989012899785565 -1.7175334226273757 -0.8589874824877841 -1.7335375096888925 -0.8163741904324185 -1.7335375096888925 L -0.4835663076832737 -1.7335375096888925 C -0.451558133560239 -1.7335375096888925 -0.42205662367575514 -1.7512769796847913 -0.40836638052674634 -1.7788502863088513 L -0.3973756219423309 -1.8008318034776827 C -0.37134487792660975 -1.8528932915091245 -0.3154269833743202 -1.8866368485665408 -0.2546885806709709 -1.8866368485665408 L 0.07407007523128417 -1.8866368485665408 C 0.1407859080419469 -1.8866368485665408 0.200560209115084 -1.846337400423684 0.22292736693600013 -1.7865630993505466 L 0.22292736693600013 -1.7865630993505466 C 0.2346894068245855 -1.7549405658795965 0.26631194029553495 -1.733730330014935 0.3014052396352478 -1.733730330014935 L 0.6191731369530868 -1.733730330014935 C 0.7061351039981989 -1.733730330014935 0.7769001636557522 -1.6660503955740604 0.7769001636557522 -1.5833304757018798 L 0.7769001636557522 -0.821304547182401 C 0.7769001636557522 -0.7381989866581362 0.7061351039981989 -0.6705190522172613 0.6187874963010018 -0.6705190522172613 Z M -0.8165670107584612 -1.6627724500313392 C -0.8389341685793769 -1.6627724500313392 -0.8599515841179961 -1.654481176011517 -0.8755700305274288 -1.639248370254169 C -0.8911884769368614 -1.6240155644968213 -0.9000582119348108 -1.6039622505884132 -0.8996725712827263 -1.5823663740716676 L -0.8902243753066497 -0.8203404455521888 C -0.8896459143285225 -0.7769558721926539 -0.8524315914023437 -0.7420553931789835 -0.806925994456342 -0.7420553931789835 L 0.6189803166270442 -0.7420553931789835 C 0.6648715542251298 -0.7420553931789835 0.7022786974773514 -0.7775343331707809 0.7022786974773514 -0.8214973675084434 L 0.7022786974773514 -1.5835232960279222 C 0.7022786974773514 -1.627293510039542 0.6650643745511722 -1.662965270357382 0.6189803166270442 -1.662965270357382 L 0.30121241930920495 -1.662965270357382 C 0.23449658649854221 -1.662965270357382 0.1747222854254047 -1.7032647185002388 0.152355127604489 -1.7630390195733758 L 0.152355127604489 -1.7630390195733758 C 0.14059308771590362 -1.794661553044326 0.10897055424495417 -1.8158717889089875 0.07387725490524133 -1.8158717889089875 L -0.25488140099701373 -1.8158717889089875 C -0.28688957512004865 -1.8158717889089875 -0.3163910850045324 -1.7981323189130887 -0.32988850782749823 -1.7705590122890287 L -0.3408792664119138 -1.7485774951201978 C -0.36691001042763494 -1.696516007088756 -0.4228279049799245 -1.6627724500313397 -0.4835663076832737 -1.6627724500313397 L -0.8163741904324185 -1.6627724500313397 L -0.8163741904324185 -1.6627724500313392 Z" fill="#ffffff" transform="matrix(1,0,0,1,0,0)" fill-rule="nonzero"></path></g><g clip-path="url(#SvgjsClipPath101927878e37f2-4b52-41f8-8ed3-a224700ba9d7)"><path d=" M -0.1885512088384358 -1.31743124608944 L 0.096822873704284 -1.5895007261352352 C 0.07233469229690215 -1.6012627660238206 0.046689588933266135 -1.6105181416738543 0.019887563613375292 -1.6174596734113798 C -0.04952775376188079 -1.6357776043854053 -0.12453486059236618 -1.6369345263416597 -0.19472145927179163 -1.6209304392801425 L -0.19472145927179163 -1.3118394566342106 L -0.1885512088384358 -1.31743124608944 L -0.1885512088384358 -1.31743124608944 Z" fill="#ffffff" transform="matrix(1,0,0,1,0,0)" fill-rule="nonzero"></path></g><g clip-path="url(#SvgjsClipPath101927878e37f2-4b52-41f8-8ed3-a224700ba9d7)"><path d=" M -0.4800955418145111 -1.4038147521564255 C -0.49243604268122343 -1.3804834927052978 -0.5020770589833424 -1.3558024909718736 -0.5095970516989948 -1.3305430282603217 C -0.5198165289792409 -1.2952569085945662 -0.5250226777823852 -1.2586210466465146 -0.5250226777823852 -1.2219851846984628 C -0.5250226777823852 -1.1897841902493862 -0.5211662712615378 -1.1573903754742663 -0.5132606378938003 -1.126153482655401 L -0.18893684949051992 -1.126153482655401 L -0.4800955418145111 -1.4038147521564255 Z" fill="#ffffff" transform="matrix(1,0,0,1,0,0)" fill-rule="nonzero"></path></g><g clip-path="url(#SvgjsClipPath101927878e37f2-4b52-41f8-8ed3-a224700ba9d7)"><path d=" M -0.20841170242080054 -0.8261250553334607 C -0.13861074439345966 -0.8076143040333923 -0.06379645788901711 -0.8066502024031805 0.006197320464366385 -0.8226542894646975 L 0.006197320464366385 -1.1317452721106298 L -0.2853470125117099 -0.8538911822835629 C -0.2608588311043274 -0.8423219627210203 -0.23502090741464854 -0.8328737667449435 -0.20841170242080054 -0.8261250553334607 Z" fill="#ffffff" transform="matrix(1,0,0,1,0,0)" fill-rule="nonzero"></path></g><g clip-path="url(#SvgjsClipPath101927878e37f2-4b52-41f8-8ed3-a224700ba9d7)"><path d=" M -0.23193578219797062 -1.2258415912193101 L -0.23193578219797062 -1.6107109619998972 C -0.25796652621369187 -1.6024196879800745 -0.2832259889252431 -1.5916217497217016 -0.30675006870241317 -1.5785099675508203 C -0.37038077629639854 -1.544187949515277 -0.4234063659580525 -1.495211586700513 -0.46119914986235855 -1.4360157466055032 L -0.23193578219797062 -1.2175503171994884 L -0.23193578219797062 -1.2258415912193101 L -0.23193578219797062 -1.2258415912193101 Z" fill="#ffffff" transform="matrix(1,0,0,1,0,0)" fill-rule="nonzero"></path></g><g clip-path="url(#SvgjsClipPath101927878e37f2-4b52-41f8-8ed3-a224700ba9d7)"><path d=" M -0.09888975722872972 -1.0904817223375611 L -0.5024626996354271 -1.0904817223375611 C -0.4937857849635203 -1.0656079002780945 -0.48240938572701964 -1.0418910001748816 -0.46852632225196855 -1.0191382017018813 C -0.43285456193412875 -0.9587854396506172 -0.38137153488081355 -0.9082665142275141 -0.31909056956912507 -0.8720162929315469 L -0.0898272019047377 -1.0904817223375616 C -0.0898272019047377 -1.0904817223375611 -0.09888975722872972 -1.0904817223375611 -0.09888975722872972 -1.0904817223375611 Z" fill="#ffffff" transform="matrix(1,0,0,1,0,0)" fill-rule="nonzero"></path></g><g clip-path="url(#SvgjsClipPath101927878e37f2-4b52-41f8-8ed3-a224700ba9d7)"><path d=" M -0.0898272019047377 -1.3531030064072798 L 0.31374574050195947 -1.3531030064072798 C 0.3050688258300527 -1.3779768284667464 0.29369242659355255 -1.4018865488960013 0.2801950037705856 -1.4244465270429592 C 0.2445232434527458 -1.4847992890942237 0.1930402163994307 -1.5353182145173268 0.13075925108774267 -1.571568435813294 L -0.0985041165766447 -1.3531030064072793 C -0.0985041165766447 -1.3531030064072798 -0.0898272019047377 -1.3531030064072798 -0.0898272019047377 -1.3531030064072798 Z" fill="#ffffff" transform="matrix(1,0,0,1,0,0)" fill-rule="nonzero"></path></g><g clip-path="url(#SvgjsClipPath101927878e37f2-4b52-41f8-8ed3-a224700ba9d7)"><path d=" M 0.32454367876033263 -1.31743124608944 L 0.00021989035705294313 -1.31743124608944 L 0.006197320464366829 -1.3116466363081682 L 0.29157140300708684 -1.039577156262373 C 0.30391190387379874 -1.063101236039543 0.3135529201759173 -1.0875894174469256 0.32068727223948534 -1.1128488801584768 C 0.33090674951973154 -1.1481349998242323 0.3361128983228763 -1.1849636820983267 0.3361128983228763 -1.221792364372421 C 0.33630571864891756 -1.25418617914754 0.3324493121280703 -1.2861943532705746 0.32454367876033263 -1.31743124608944 Z" fill="#ffffff" transform="matrix(1,0,0,1,0,0)" fill-rule="nonzero"></path></g><g clip-path="url(#SvgjsClipPath101927878e37f2-4b52-41f8-8ed3-a224700ba9d7)"><path d=" M 0.043604463716588215 -1.2173574968734455 L 0.043604463716588215 -0.8324881260928589 C 0.0696352077323088 -0.8407794001126812 0.09489467044386068 -0.8515773383710543 0.11841875022103077 -0.8644963002158936 C 0.181663817162931 -0.8988183182514369 0.23468940682458483 -0.9477946810662008 0.2728678313809756 -1.0069905211612107 L 0.043604463716588215 -1.2254559505672253 L 0.043604463716588215 -1.2173574968734455 L 0.043604463716588215 -1.2173574968734455 Z" fill="#ffffff" transform="matrix(1,0,0,1,0,0)" fill-rule="nonzero"></path></g></g></g></g><defs><clipPath id="SvgjsClipPath101929"><path d=" M -1.3630198147625603 -2.436946059091487 h 2.7260396295251206 v 2.249446059091487 h -2.7260396295251206 Z"></path></clipPath><clipPath id="SvgjsClipPath101927878e37f2-4b52-41f8-8ed3-a224700ba9d7"><path d=" M -1.3630198147625603 -2.436946059091487 L 1.3630198147625603 -2.436946059091487 L 1.3630198147625603 -0.1875 L -1.3630198147625603 -0.1875 Z"></path></clipPath></defs></svg>